<svg width="1307" height="252" viewBox="0 0 1307 252" fill="none" xmlns="http://www.w3.org/2000/svg" role="img">
  <title>OpenKnowledge</title>
  <g filter="url(#ok-shadow)">
    <path d="M195.615 47.322C170.404 11.5418 135.032 -1.78461 87.4933 6.60183C62.581 10.9903 39.3632 28.1768 25.382 52.5836C11.5214 76.7664 8.72979 104.499 17.7136 128.665C27.2431 154.312 48.887 171.24 70.8583 185.71C75.4421 188.731 76.4301 192.419 77.0735 201.989C77.5617 209.22 78.3717 221.323 89.7335 227.521C93.0479 229.325 96.6954 230.244 100.584 230.244C108.436 230.244 115.232 226.481 118.494 224.678C137.755 214.022 201.457 174.865 212.445 118.388C217.414 92.8442 207.574 64.2844 195.621 47.322H195.615Z" fill="white"/>
    <path d="M109.438 208.318C84.1921 222.282 107.582 187.513 81.142 170.097C63.2778 158.333 43.248 143.697 35.2406 122.156C19.7257 80.4194 51.307 31.9562 90.7404 25.0115C132.179 17.7107 159.952 29.1703 180.332 58.092C190.7 72.8085 197.696 96.2618 194.083 114.821C186.26 155.036 143.512 189.466 109.438 208.318Z" fill="#69A3FF"/>
    <path d="M154.195 85.8131C156.366 83.6428 159.884 83.6428 162.055 85.8131V85.8131C164.225 87.9834 164.225 91.5021 162.055 93.6724L144.061 111.666L136.202 103.807L154.195 85.8131Z" fill="#D5E5FF"/>
    <path d="M162.054 113.942C164.224 116.112 164.224 119.631 162.054 121.801V121.801C159.883 123.971 156.365 123.971 154.194 121.801L136.201 103.807L144.06 95.9481L162.054 113.942Z" fill="#D5E5FF"/>
  </g>
  <path d="M357.843 150.449C348.511 160.764 336.035 165.921 320.416 165.921C304.796 165.921 292.271 160.764 282.841 150.449C273.508 140.134 268.842 126.971 268.842 110.959C268.842 94.9465 273.508 81.783 282.841 71.4684C292.271 61.1537 304.796 55.9964 320.416 55.9964C336.035 55.9964 348.511 61.1537 357.843 71.4684C367.274 81.783 371.989 94.9465 371.989 110.959C371.989 126.971 367.274 140.134 357.843 150.449ZM292.419 142.197C299.099 150.253 308.431 154.28 320.416 154.28C332.4 154.28 341.733 150.253 348.412 142.197C355.092 134.142 358.432 123.729 358.432 110.959C358.432 98.1882 355.092 87.7753 348.412 79.7201C341.733 71.5666 332.4 67.4899 320.416 67.4899C308.431 67.4899 299.099 71.5666 292.419 79.7201C285.739 87.7753 282.399 98.1882 282.399 110.959C282.399 123.729 285.739 134.142 292.419 142.197ZM383.081 188.171V87.5298H395.016V98.2865H395.311C401.5 89.9365 409.653 85.7615 419.771 85.7615C429.595 85.7615 437.503 89.3471 443.495 96.5182C449.487 103.591 452.483 113.365 452.483 125.841C452.483 138.121 449.536 147.895 443.642 155.164C437.748 162.336 429.644 165.921 419.329 165.921C409.113 165.921 401.107 162.188 395.311 154.722H395.016V188.171H383.081ZM418.445 155.901C425.518 155.901 430.921 153.151 434.654 147.649C438.387 142.148 440.253 134.928 440.253 125.989C440.253 117.049 438.387 109.829 434.654 104.328C430.921 98.7285 425.567 95.9288 418.592 95.9288C410.635 95.9288 404.594 98.7776 400.468 104.475C396.342 110.075 394.279 117.246 394.279 125.989C394.279 134.928 396.244 142.148 400.173 147.649C404.103 153.151 410.193 155.901 418.445 155.901ZM494.001 165.774C482.704 165.774 473.716 161.992 467.036 154.428C460.454 146.765 457.163 137.187 457.163 125.694C457.163 114.397 460.503 104.917 467.183 97.255C473.961 89.4944 482.655 85.6142 493.264 85.6142C504.463 85.6142 513.108 89.5436 519.198 97.4023C525.289 105.163 528.334 115.527 528.334 128.494H469.393C469.884 136.549 472.242 143.131 476.466 148.239C480.788 153.249 486.633 155.754 494.001 155.754C505.396 155.754 512.42 150.547 515.072 140.134H526.713C524.945 148.288 521.212 154.624 515.514 159.143C509.817 163.563 502.646 165.774 494.001 165.774ZM509.178 101.528C505.347 97.2059 500.042 95.0447 493.264 95.0447C486.486 95.0447 481.083 97.3041 477.056 101.823C473.126 106.342 470.67 112.236 469.688 119.505H515.514C515.121 111.843 513.009 105.851 509.178 101.528ZM548.993 87.5298V97.5497H549.288C555.182 89.6909 563.237 85.7615 573.454 85.7615C581.509 85.7615 587.796 87.8736 592.315 92.0977C596.834 96.3218 599.093 102.363 599.093 110.222V163.711H587.157V111.253C587.157 106.342 585.635 102.56 582.59 99.9073C579.544 97.1568 575.32 95.7815 569.917 95.7815C563.827 95.7815 558.817 97.7462 554.887 101.676C550.958 105.605 548.993 110.664 548.993 116.853V163.711H537.058V87.5298H548.993ZM634.236 163.711V58.354H647.498V110.664L699.366 58.354H716.017L673.432 100.497L719.553 163.711H704.081L664.444 109.485L647.498 126.431V163.711H634.236ZM736.286 87.5298V97.5497H736.581C742.475 89.6909 750.53 85.7615 760.746 85.7615C768.802 85.7615 775.089 87.8736 779.607 92.0977C784.126 96.3218 786.386 102.363 786.386 110.222V163.711H774.45V111.253C774.45 106.342 772.927 102.56 769.882 99.9073C766.837 97.1568 762.613 95.7815 757.21 95.7815C751.119 95.7815 746.109 97.7462 742.18 101.676C738.251 105.605 736.286 110.664 736.286 116.853V163.711H724.35V87.5298H736.286ZM858.488 154.28C851.808 161.943 842.918 165.774 831.817 165.774C820.717 165.774 811.777 161.943 804.999 154.28C798.319 146.618 794.979 137.089 794.979 125.694C794.979 114.299 798.319 104.77 804.999 97.1076C811.777 89.4453 820.717 85.6142 831.817 85.6142C842.918 85.6142 851.808 89.4453 858.488 97.1076C865.168 104.77 868.508 114.299 868.508 125.694C868.508 137.089 865.168 146.618 858.488 154.28ZM813.546 147.355C817.868 152.954 823.959 155.754 831.817 155.754C839.676 155.754 845.718 152.954 849.942 147.355C854.166 141.657 856.278 134.437 856.278 125.694C856.278 116.853 854.117 109.633 849.794 104.033C845.57 98.3356 839.578 95.4868 831.817 95.4868C823.959 95.4868 817.868 98.3356 813.546 104.033C809.322 109.731 807.21 116.951 807.21 125.694C807.21 134.437 809.322 141.657 813.546 147.355ZM892.676 163.711L868.51 87.5298H881.33L894.739 134.535L898.865 150.891H899.16C900.633 144.211 901.91 138.857 902.991 134.83L915.81 87.5298H928.335L940.713 134.83L944.397 150.891H944.691C946.263 144.211 947.688 138.759 948.965 134.535L963.11 87.5298H975.488L950.585 163.711H938.355L925.683 117.59L921.999 101.676H921.704C920.329 108.061 919.052 113.365 917.873 117.59L905.054 163.711H892.676ZM981.732 163.711V58.354H993.667V163.711H981.732ZM1039.98 165.774C1028.68 165.774 1019.69 161.992 1013.01 154.428C1006.43 146.765 1003.14 137.187 1003.14 125.694C1003.14 114.397 1006.48 104.917 1013.16 97.255C1019.94 89.4944 1028.63 85.6142 1039.24 85.6142C1050.44 85.6142 1059.08 89.5436 1065.17 97.4023C1071.26 105.163 1074.31 115.527 1074.31 128.494H1015.37C1015.86 136.549 1018.22 143.131 1022.44 148.239C1026.76 153.249 1032.61 155.754 1039.98 155.754C1051.37 155.754 1058.39 150.547 1061.05 140.134H1072.69C1070.92 148.288 1067.19 154.624 1061.49 159.143C1055.79 163.563 1048.62 165.774 1039.98 165.774ZM1055.15 101.528C1051.32 97.2059 1046.02 95.0447 1039.24 95.0447C1032.46 95.0447 1027.06 97.3041 1023.03 101.823C1019.1 106.342 1016.64 112.236 1015.66 119.505H1061.49C1061.1 111.843 1058.98 105.851 1055.15 101.528ZM1112.5 165.921C1102.09 165.921 1093.84 162.336 1087.75 155.164C1081.75 147.895 1078.76 138.121 1078.76 125.841C1078.76 113.464 1081.9 103.689 1088.19 96.5182C1094.48 89.3471 1102.48 85.7615 1112.21 85.7615C1122.52 85.7615 1130.48 89.9365 1136.08 98.2865H1136.37V58.354H1148.31V163.711H1136.37V154.428H1136.08C1130.09 162.09 1122.23 165.921 1112.5 165.921ZM1112.94 155.901C1121.1 155.901 1127.14 153.2 1131.07 147.797C1135.1 142.394 1137.11 135.124 1137.11 125.989C1137.11 116.951 1134.95 109.682 1130.63 104.181C1126.4 98.6794 1120.46 95.9288 1112.8 95.9288C1105.82 95.9288 1100.42 98.7285 1096.59 104.328C1092.86 109.829 1090.99 117.049 1090.99 125.989C1090.99 134.928 1092.86 142.148 1096.59 147.649C1100.42 153.151 1105.87 155.901 1112.94 155.901ZM1191.89 189.055C1182.16 189.055 1174.5 187.189 1168.9 183.456C1163.4 179.821 1160.3 174.664 1159.62 167.984H1170.67C1171.75 175.745 1178.72 179.625 1191.59 179.625C1206.13 179.625 1213.4 173.092 1213.4 160.027V149.27H1213.1C1210.06 153.2 1206.82 156.147 1203.38 158.111C1199.94 160.076 1195.67 161.058 1190.56 161.058C1180.74 161.058 1172.73 157.522 1166.54 150.449C1160.35 143.376 1157.26 134.339 1157.26 123.336C1157.26 111.843 1160.35 102.707 1166.54 95.9288C1172.83 89.1506 1180.59 85.7615 1189.82 85.7615C1199.84 85.7615 1207.6 89.5927 1213.1 97.255H1213.4V87.5298H1225.34V159.585C1225.34 169.31 1222.34 176.629 1216.35 181.54C1210.45 186.55 1202.3 189.055 1191.89 189.055ZM1191.15 151.039C1206.57 151.039 1214.28 141.608 1214.28 122.747C1214.28 104.77 1206.52 95.7815 1191 95.7815C1184.03 95.7815 1178.67 98.2865 1174.94 103.296C1171.31 108.306 1169.49 115.035 1169.49 123.484C1169.49 131.932 1171.36 138.661 1175.09 143.671C1178.82 148.583 1184.17 151.039 1191.15 151.039ZM1271.16 165.774C1259.86 165.774 1250.87 161.992 1244.19 154.428C1237.61 146.765 1234.32 137.187 1234.32 125.694C1234.32 114.397 1237.66 104.917 1244.34 97.255C1251.12 89.4944 1259.81 85.6142 1270.42 85.6142C1281.62 85.6142 1290.26 89.5436 1296.35 97.4023C1302.44 105.163 1305.49 115.527 1305.49 128.494H1246.55C1247.04 136.549 1249.4 143.131 1253.62 148.239C1257.94 153.249 1263.79 155.754 1271.16 155.754C1282.55 155.754 1289.58 150.547 1292.23 140.134H1303.87C1302.1 148.288 1298.37 154.624 1292.67 159.143C1286.97 163.563 1279.8 165.774 1271.16 165.774ZM1286.33 101.528C1282.5 97.2059 1277.2 95.0447 1270.42 95.0447C1263.64 95.0447 1258.24 97.3041 1254.21 101.823C1250.28 106.342 1247.83 112.236 1246.84 119.505H1292.67C1292.28 111.843 1290.17 105.851 1286.33 101.528Z" fill="#1a1a1a"/>
  <defs>
    <filter id="ok-shadow" x="0" y="0" width="226.297" height="251.133" filterUnits="userSpaceOnUse" color-interpolation-filters="sRGB">
      <feFlood flood-opacity="0" result="BackgroundImageFix"/>
      <feColorMatrix in="SourceAlpha" type="matrix" values="0 0 0 0 0 0 0 0 0 0 0 0 0 0 0 0 0 0 127 0" result="hardAlpha"/>
      <feOffset dy="8.35549"/>
      <feGaussianBlur stdDeviation="6.26662"/>
      <feComposite in2="hardAlpha" operator="out"/>
      <feColorMatrix type="matrix" values="0 0 0 0 0 0 0 0 0 0 0 0 0 0 0 0 0 0 0.1 0"/>
      <feBlend mode="normal" in2="BackgroundImageFix" result="effect1_dropShadow"/>
      <feBlend mode="normal" in="SourceGraphic" in2="effect1_dropShadow" result="shape"/>
    </filter>
  </defs>
</svg>
